<?xml version="1.0" standalone="no"?>
<!DOCTYPE svg PUBLIC "-//W3C//DTD SVG 20010904//EN"
 "http://www.w3.org/TR/2001/REC-SVG-20010904/DTD/svg10.dtd">
<svg version="1.0" xmlns="http://www.w3.org/2000/svg"
 width="4840.000000pt" height="4840.000000pt" viewBox="0 0 4840.000000 4840.000000"
 preserveAspectRatio="xMidYMid meet">
<metadata>
Created by potrace 1.11, written by Peter Selinger 2001-2013
</metadata>
<g transform="translate(0.000000,4840.000000) scale(0.100000,-0.100000)"
fill="#000000" stroke="none">
<path d="M24515 40799 c-2757 -88 -5454 -832 -7860 -2167 -3311 -1838 -5942
-4720 -7450 -8162 -905 -2066 -1383 -4234 -1434 -6500 -67 -2958 620 -5851
2002 -8442 1780 -3335 4614 -6003 8057 -7586 3000 -1379 6354 -1871 9660
-1416 4395 604 8378 2867 11169 6347 640 798 1242 1709 1726 2612 1581 2951
2257 6258 1964 9620 -258 2973 -1302 5839 -3019 8295 -1832 2620 -4357 4687
-7280 5962 -2366 1032 -4926 1520 -7535 1437z m980 -1019 c645 -21 1226 -71
1825 -155 3961 -556 7584 -2535 10185 -5565 1829 -2129 3065 -4672 3595 -7393
367 -1887 393 -3846 75 -5748 -305 -1826 -937 -3610 -1853 -5224 -1091 -1924
-2550 -3595 -4317 -4944 -2028 -1547 -4401 -2604 -6915 -3080 -2318 -439
-4745 -377 -7030 178 -2437 592 -4722 1742 -6645 3345 -401 335 -707 615
-1125 1035 -576 577 -1049 1123 -1513 1747 -95 127 -181 235 -192 240 -11 5
-22 20 -23 34 -2 14 -34 68 -71 120 -190 266 -460 685 -663 1025 -1715 2880
-2479 6227 -2187 9590 153 1762 585 3445 1308 5090 105 238 395 831 526 1076
562 1047 1244 2039 2026 2944 463 537 1069 1147 1604 1616 2205 1932 4902
3245 7785 3788 1189 224 2424 320 3605 281z"/>
<path d="M35534 30750 c-179 -48 -222 -76 -317 -207 -91 -125 -85 -84 -93
-643 -7 -493 -6 -495 16 -569 23 -79 23 -86 1 -336 -5 -60 -21 -175 -35 -255
-13 -80 -27 -188 -31 -240 -3 -52 -10 -111 -15 -130 -5 -19 -14 -78 -20 -130
-10 -82 -19 -108 -60 -191 -27 -53 -55 -119 -61 -145 -11 -42 -65 -164 -110
-244 -22 -40 -138 -171 -187 -213 -47 -40 -61 -54 -140 -147 -26 -30 -95 -103
-153 -161 -100 -99 -115 -110 -240 -173 -74 -38 -145 -76 -159 -86 -14 -9 -65
-36 -114 -60 -49 -24 -109 -56 -132 -72 -24 -16 -58 -34 -76 -40 -18 -6 -60
-29 -92 -50 -33 -21 -63 -38 -68 -38 -5 0 -91 -40 -191 -89 -265 -130 -312
-142 -577 -152 -118 -4 -302 -3 -407 1 -169 7 -201 11 -260 33 -191 71 -429
137 -623 172 -113 20 -252 46 -310 57 -58 11 -156 26 -218 33 -88 10 -124 19
-165 40 -51 27 -173 64 -211 65 -17 0 -379 154 -401 170 -5 4 -54 22 -108 39
-54 17 -110 40 -125 51 -15 11 -58 32 -97 46 -87 32 -364 114 -387 114 -10 0
-64 16 -120 36 -57 20 -141 44 -188 55 -47 10 -104 24 -128 29 -23 6 -66 10
-95 10 -28 0 -95 12 -147 26 -52 14 -106 28 -120 31 -36 7 -181 52 -205 62
-181 82 -340 145 -420 166 -59 16 -92 27 -285 96 -129 46 -158 52 -260 60 -63
4 -139 15 -167 24 -44 13 -95 15 -320 12 -489 -8 -1010 -35 -1116 -58 -26 -6
-74 -24 -105 -40 -66 -33 -210 -73 -320 -89 -42 -6 -98 -17 -123 -25 -49 -14
-182 -77 -264 -126 -59 -35 -151 -79 -166 -79 -9 0 -112 -52 -148 -75 -9 -6
-90 -60 -181 -120 -128 -85 -205 -127 -340 -188 l-175 -78 -245 4 c-228 3
-251 5 -335 29 -49 15 -117 34 -150 43 -33 10 -64 21 -70 25 -17 14 -226 91
-269 100 -94 18 -170 43 -236 76 -38 19 -74 34 -80 34 -13 0 -181 75 -357 161
-79 38 -147 69 -152 69 -4 0 -29 16 -54 35 -25 19 -49 35 -52 35 -13 0 -120
74 -163 113 -26 23 -56 47 -67 54 -11 7 -40 24 -65 39 -25 15 -122 78 -217
140 -94 63 -177 114 -184 114 -6 0 -46 19 -88 41 -42 23 -110 60 -151 81 -41
22 -84 48 -95 58 -11 9 -58 39 -105 66 -103 58 -158 94 -228 151 -29 24 -72
53 -95 64 -23 12 -81 47 -128 79 -47 31 -108 62 -135 69 -54 15 -180 76 -261
128 -29 18 -56 33 -61 33 -6 0 -42 14 -82 31 -93 39 -333 119 -359 119 -11 0
-43 9 -70 20 -88 34 -209 60 -309 66 -87 5 -224 31 -497 94 -83 20 -115 21
-410 18 -254 -2 -338 -7 -405 -20 -47 -10 -130 -25 -185 -34 -173 -28 -287
-57 -387 -99 -66 -28 -92 -36 -173 -55 -27 -6 -68 -20 -89 -31 -22 -11 -60
-27 -85 -36 -82 -27 -175 -75 -221 -113 -25 -20 -92 -70 -150 -112 -184 -131
-332 -276 -355 -347 -4 -13 -23 -50 -42 -83 -19 -33 -50 -92 -68 -131 -18 -40
-55 -107 -83 -150 -28 -43 -55 -92 -61 -110 -14 -43 -8 -944 8 -1097 6 -63 16
-198 21 -300 14 -285 25 -372 68 -540 21 -85 47 -202 56 -260 10 -58 33 -166
51 -240 28 -116 34 -160 40 -308 3 -95 11 -199 16 -230 5 -31 14 -105 19 -164
6 -59 19 -131 29 -160 34 -91 60 -212 67 -304 4 -53 17 -120 32 -164 21 -63
26 -102 32 -240 6 -135 11 -175 29 -220 12 -30 25 -89 28 -130 4 -51 14 -91
31 -125 22 -43 27 -69 33 -185 8 -134 18 -204 34 -230 9 -14 23 -225 32 -460
8 -230 -11 -286 -134 -394 -43 -38 -152 -145 -243 -237 -188 -191 -249 -234
-335 -233 -72 1 -298 60 -375 99 -88 44 -213 146 -270 220 -30 39 -75 79 -131
117 -114 77 -190 153 -234 235 -27 52 -55 85 -116 137 -44 38 -92 85 -107 105
-34 44 -145 174 -193 226 -90 97 -156 202 -211 334 -58 138 -119 250 -203 366
-106 149 -166 262 -210 395 -15 47 -41 114 -58 150 -50 110 -85 202 -107 283
-11 44 -34 127 -49 185 -16 59 -32 127 -36 152 -4 25 -22 81 -40 125 -18 44
-43 122 -56 173 -20 83 -21 100 -11 151 7 31 12 106 12 165 0 119 11 228 40
406 11 63 22 140 25 170 4 30 15 88 26 128 10 40 19 85 19 100 0 15 6 52 14
82 7 30 21 109 31 175 17 121 27 158 115 410 27 77 65 194 85 260 58 190 85
264 130 355 24 47 50 108 59 135 19 56 86 174 110 195 9 7 16 16 16 20 0 8 98
187 120 220 5 8 26 47 46 85 20 39 50 89 66 113 17 24 46 78 65 120 44 94 52
170 30 273 -9 41 -19 97 -22 124 -11 88 -45 196 -90 289 -55 114 -126 190
-217 236 -41 19 -108 69 -175 128 -118 106 -187 162 -197 162 -12 0 -150 96
-185 129 -18 17 -37 31 -42 31 -16 0 -171 73 -218 102 -24 15 -69 32 -100 39
-31 6 -76 17 -101 25 -25 7 -105 21 -179 30 -115 14 -149 15 -235 4 -56 -6
-130 -20 -165 -31 -35 -10 -80 -19 -100 -19 -20 0 -58 -8 -86 -19 -27 -10 -72
-22 -100 -26 -27 -4 -57 -11 -66 -15 -9 -5 -60 -18 -113 -29 -54 -11 -106 -26
-115 -34 -22 -19 -143 -102 -161 -110 -8 -4 -27 -15 -41 -25 -14 -9 -39 -26
-56 -37 -80 -53 -173 -134 -198 -172 -14 -24 -44 -57 -66 -74 -46 -36 -55 -53
-121 -214 -50 -121 -61 -171 -78 -345 -16 -174 -39 -314 -60 -375 -11 -33 -25
-94 -30 -135 -4 -41 -13 -120 -19 -175 -7 -55 -16 -138 -22 -185 -5 -47 -14
-150 -19 -230 -5 -80 -14 -176 -19 -215 -10 -70 -54 -230 -87 -315 -14 -36
-20 -93 -26 -275 -4 -126 -11 -264 -16 -305 -6 -41 -15 -133 -21 -205 -6 -71
-18 -161 -26 -200 -25 -122 -6 -1159 24 -1270 5 -22 22 -69 36 -105 14 -36 35
-101 46 -145 11 -43 32 -106 47 -140 24 -56 26 -72 28 -225 2 -142 5 -173 24
-225 13 -33 26 -64 30 -70 16 -21 40 -125 40 -170 0 -47 26 -163 55 -245 9
-25 23 -79 31 -120 8 -41 27 -100 41 -130 31 -67 53 -144 53 -187 0 -18 12
-63 26 -100 14 -37 43 -115 64 -173 52 -145 61 -169 119 -300 28 -63 51 -120
51 -127 0 -6 23 -67 51 -135 54 -133 102 -289 118 -384 6 -40 22 -79 50 -124
22 -36 57 -96 77 -134 20 -38 51 -91 70 -119 31 -45 64 -130 64 -166 0 -9 12
-50 26 -91 14 -41 36 -120 50 -175 18 -73 36 -119 69 -172 46 -76 94 -207 119
-330 8 -40 24 -94 36 -120 12 -26 36 -86 55 -133 18 -47 56 -134 84 -193 28
-60 51 -111 51 -115 0 -19 130 -308 166 -367 57 -95 100 -172 123 -220 11 -22
51 -107 90 -188 51 -106 85 -163 119 -200 27 -29 81 -110 122 -182 40 -71 86
-148 101 -170 31 -47 238 -253 289 -289 43 -30 162 -103 210 -130 19 -10 46
-28 60 -40 14 -11 41 -28 60 -37 152 -71 240 -116 271 -141 20 -15 40 -28 44
-28 4 0 20 -9 35 -20 16 -11 66 -34 112 -51 216 -79 459 -159 482 -159 17 0
220 -73 247 -89 42 -25 185 -72 290 -96 l117 -26 328 4 c181 3 358 11 394 17
36 6 214 15 395 19 l330 7 85 31 c98 35 192 81 259 126 48 33 66 43 130 79 20
11 52 32 72 48 19 15 51 36 70 46 19 11 48 29 66 42 17 12 34 22 38 22 11 0
104 72 169 131 33 31 84 74 113 96 58 46 210 215 233 259 24 47 46 74 148 179
56 58 133 153 182 225 47 68 124 182 172 252 83 121 158 261 191 358 9 25 35
92 58 150 60 151 89 254 98 345 5 44 22 132 39 194 l31 115 7 485 c8 547 6
567 -66 936 -21 110 -46 245 -54 300 -8 55 -24 125 -35 155 -51 146 -60 182
-70 280 -5 58 -21 146 -35 195 -64 234 -79 282 -117 370 -22 52 -49 138 -60
192 -21 100 -32 137 -75 253 -13 36 -31 110 -39 165 -8 54 -25 117 -36 139
-65 124 -71 165 -94 576 -16 289 -18 675 -5 810 17 180 77 366 168 525 25 44
59 105 75 135 17 30 38 66 47 80 10 14 31 52 47 85 41 85 74 134 131 196 84
93 112 126 112 137 0 16 112 109 177 145 33 19 81 37 107 41 26 4 84 19 129
33 75 23 96 25 246 24 189 -2 193 -3 550 -132 29 -11 106 -47 170 -81 64 -33
136 -70 160 -82 25 -11 77 -38 115 -58 39 -21 99 -52 133 -69 34 -17 99 -55
143 -85 45 -30 86 -54 92 -54 5 0 24 -6 41 -14 18 -8 52 -23 77 -34 25 -11 70
-38 100 -60 82 -61 304 -194 400 -241 124 -61 246 -136 320 -195 36 -29 105
-81 153 -115 91 -64 156 -123 195 -178 28 -40 137 -260 145 -293 4 -14 27 -56
52 -95 60 -90 102 -167 127 -230 10 -27 46 -103 79 -168 33 -65 67 -146 75
-180 9 -33 31 -100 50 -148 18 -48 36 -105 40 -126 4 -21 15 -62 25 -92 11
-30 19 -76 19 -102 0 -27 9 -72 19 -101 11 -29 29 -89 40 -133 11 -44 36 -127
56 -184 19 -58 35 -115 35 -127 0 -12 16 -66 36 -120 l37 -99 13 -390 c7 -214
18 -408 24 -430 6 -22 15 -121 20 -220 16 -283 31 -573 34 -660 1 -44 10 -113
19 -153 10 -40 15 -83 11 -97 -3 -13 -1 -106 6 -207 11 -159 15 -189 38 -238
22 -48 26 -74 32 -215 7 -133 12 -174 34 -240 25 -75 82 -275 111 -391 7 -27
28 -97 48 -155 19 -57 45 -142 57 -189 64 -250 100 -338 171 -416 61 -68 94
-149 123 -302 13 -67 61 -193 98 -257 7 -11 57 -94 111 -184 54 -90 111 -189
126 -220 46 -95 86 -144 304 -373 62 -65 139 -148 172 -184 64 -71 114 -113
230 -193 28 -19 61 -46 75 -59 29 -28 155 -112 168 -112 4 0 32 -17 60 -38 54
-39 122 -84 176 -116 17 -10 67 -33 111 -51 44 -18 115 -49 158 -69 42 -20 82
-36 88 -36 6 0 45 -19 87 -42 123 -67 142 -74 242 -92 52 -9 129 -25 170 -36
41 -10 143 -35 225 -55 83 -19 179 -44 215 -55 156 -45 264 -53 657 -47 403 6
423 8 608 69 120 40 191 84 264 162 14 14 29 26 33 26 5 0 30 15 56 33 26 17
51 34 57 37 6 3 43 30 82 60 54 42 78 69 102 115 17 33 40 76 51 95 18 32 20
53 20 265 l0 230 -40 69 c-22 37 -40 70 -40 73 0 2 -35 61 -77 131 -54 88 -99
146 -146 191 -38 37 -105 104 -150 151 -215 223 -250 254 -329 293 -42 21 -94
41 -115 45 -47 8 -141 67 -226 140 -33 29 -86 65 -116 79 -31 14 -75 41 -98
59 -23 19 -44 34 -48 34 -9 0 -95 60 -114 80 -9 9 -54 58 -101 110 -126 140
-164 173 -293 260 -109 73 -98 60 -379 470 -55 81 -87 145 -88 173 0 10 -23
68 -51 130 -105 228 -185 503 -200 682 -5 61 -14 135 -20 165 -17 92 -29 324
-40 745 -12 491 -12 450 -3 625 4 99 2 176 -6 243 -10 74 -11 122 -3 195 14
135 41 344 55 422 6 36 14 180 18 320 6 226 9 262 28 314 12 33 22 79 22 103
0 60 75 321 120 418 10 23 32 77 49 122 46 117 97 190 184 261 41 34 78 62 82
62 10 0 68 42 106 78 40 37 158 112 176 112 6 0 34 18 62 40 28 22 54 40 57
40 4 0 15 6 23 13 9 7 50 28 91 47 41 18 118 61 170 96 105 69 129 80 280 131
121 41 255 56 358 40 46 -7 78 -7 115 2 166 39 521 44 712 9 61 -10 155 -23
210 -28 105 -9 194 -36 391 -121 50 -21 103 -39 116 -39 14 0 77 -18 139 -41
63 -22 141 -49 174 -60 33 -11 71 -28 84 -36 14 -9 65 -37 115 -63 50 -26 113
-59 140 -73 27 -15 55 -27 63 -27 41 0 141 -89 208 -185 72 -104 215 -316 215
-319 0 -2 20 -39 44 -82 45 -80 76 -191 76 -272 0 -21 9 -65 20 -98 33 -94 11
-208 -71 -385 -41 -89 -62 -147 -69 -195 -11 -79 -20 -110 -49 -177 -37 -84
-72 -236 -81 -351 -5 -72 -17 -139 -35 -191 -20 -61 -28 -114 -35 -224 -11
-160 -39 -311 -77 -411 -52 -138 -55 -155 -64 -320 -5 -91 -13 -196 -19 -235
-6 -38 -15 -230 -20 -425 -8 -295 -7 -375 5 -475 8 -66 15 -165 15 -221 0 -68
6 -126 20 -179 11 -43 20 -88 20 -99 0 -12 9 -50 21 -86 14 -45 23 -110 29
-212 9 -150 20 -203 71 -340 21 -56 29 -95 29 -141 0 -66 34 -211 84 -357 14
-41 32 -104 39 -140 8 -36 21 -85 30 -110 8 -25 21 -63 27 -84 7 -22 28 -63
46 -92 21 -33 37 -73 43 -110 5 -33 25 -93 45 -134 23 -48 36 -89 36 -115 0
-23 11 -74 25 -113 14 -39 25 -86 25 -104 0 -37 37 -122 74 -171 14 -18 39
-64 57 -102 40 -86 84 -150 166 -237 34 -37 71 -84 81 -103 10 -20 60 -79 113
-133 125 -128 199 -213 199 -229 0 -7 37 -50 81 -95 45 -46 102 -105 127 -133
25 -27 82 -78 126 -113 45 -35 154 -133 243 -218 149 -142 244 -224 260 -224
3 0 52 -33 107 -73 56 -40 119 -83 141 -96 22 -13 70 -44 107 -68 37 -25 103
-58 148 -74 85 -30 228 -100 269 -131 13 -10 36 -18 52 -18 25 0 128 -33 184
-60 42 -19 268 -90 289 -90 12 0 31 -7 43 -15 24 -17 237 -99 311 -120 74 -21
247 -44 372 -49 67 -3 140 -12 175 -23 68 -20 156 -21 315 -5 97 10 243 37
261 48 4 2 61 15 126 29 184 37 241 54 308 91 34 19 85 41 113 49 28 9 65 27
82 41 16 14 65 41 108 59 123 52 348 163 449 221 94 55 134 73 209 93 23 6 47
18 54 26 7 8 17 15 22 15 5 0 34 16 64 36 55 37 132 80 191 109 18 8 70 49
115 90 46 41 87 75 91 75 15 0 74 50 154 128 50 50 92 82 118 91 22 7 56 28
75 45 19 18 48 43 65 55 70 53 199 180 233 231 32 47 61 84 107 134 46 50 77
102 95 161 20 62 30 78 90 135 38 36 85 92 104 125 20 33 59 94 86 135 28 41
66 109 86 150 58 124 76 153 113 195 53 58 85 103 117 165 15 30 36 66 45 80
13 21 51 91 135 250 8 14 19 49 25 80 6 30 33 93 59 140 51 91 74 160 85 252
3 32 18 93 31 135 17 54 27 111 30 183 3 58 12 125 19 150 18 63 39 246 29
261 -4 8 -7 83 -5 169 2 147 1 159 -24 225 -20 52 -30 107 -41 215 -20 212
-30 283 -59 398 -14 57 -25 116 -25 131 0 15 -11 61 -25 101 -14 40 -25 87
-25 104 -1 28 -26 106 -138 426 -22 63 -52 141 -66 173 -14 32 -26 62 -26 68
0 5 -28 53 -61 107 -34 53 -77 127 -96 164 -54 107 -125 207 -209 294 -44 44
-86 90 -94 101 -8 12 -36 49 -62 82 -27 34 -48 64 -48 67 0 3 -27 36 -60 75
-33 38 -60 76 -60 84 0 21 -149 168 -245 242 -135 103 -241 213 -323 334 -18
27 -45 57 -58 67 -14 9 -37 27 -52 38 -15 12 -43 30 -62 40 -87 47 -327 248
-467 392 -64 65 -134 122 -149 122 -3 0 -39 28 -81 63 -235 195 -329 266 -425
316 -120 62 -227 132 -267 173 -43 44 -56 104 -41 180 6 35 19 76 27 93 30 58
104 145 161 189 31 24 89 77 127 118 50 52 86 81 125 98 84 37 323 160 340
174 23 20 222 136 233 136 6 0 50 16 98 35 49 19 96 35 106 35 9 0 24 7 33 15
9 8 63 38 120 66 147 73 283 173 473 349 114 106 267 326 303 436 17 52 39 94
70 132 25 30 55 74 66 96 12 23 38 66 58 96 20 30 48 78 62 105 14 28 41 82
61 120 20 39 45 102 55 140 11 39 36 108 55 155 32 76 37 101 48 238 11 132
11 190 -5 430 -19 295 -18 291 -105 587 -31 107 -41 157 -41 212 0 131 -59
357 -124 471 -22 41 -46 82 -52 93 -6 10 -18 27 -27 36 -8 10 -27 43 -41 73
-15 30 -40 79 -56 109 -16 30 -35 70 -41 90 -7 20 -22 52 -34 71 -12 19 -64
118 -116 219 -74 145 -102 190 -133 214 -22 18 -94 83 -160 145 -67 63 -144
129 -173 147 -28 18 -77 61 -109 94 -52 55 -165 139 -205 154 -10 3 -64 37
-122 76 -57 39 -109 71 -114 71 -12 0 -72 46 -133 104 -49 45 -233 166 -290
189 -29 12 -337 40 -392 36 -7 -1 -58 -14 -114 -29z m-1629 -8704 c197 -40
409 -136 550 -250 110 -88 319 -313 347 -375 2 -3 26 -26 53 -51 28 -24 71
-74 98 -110 112 -154 142 -198 174 -259 18 -35 53 -89 77 -121 55 -73 169
-290 189 -361 9 -30 21 -79 28 -109 18 -84 74 -249 108 -321 38 -81 96 -269
116 -378 11 -64 15 -160 15 -411 0 -298 -2 -334 -20 -392 -33 -106 -103 -187
-250 -288 -36 -24 -87 -59 -113 -78 -27 -18 -117 -60 -200 -93 -84 -33 -172
-68 -197 -79 -198 -82 -258 -93 -520 -94 -220 -1 -231 1 -445 69 -160 51 -362
144 -435 200 -120 91 -150 113 -210 152 -36 23 -70 46 -77 52 -7 6 -34 23 -60
37 -63 36 -224 165 -282 228 -25 27 -59 61 -75 75 -15 14 -58 57 -95 95 -36
39 -105 108 -152 155 -153 154 -333 378 -374 469 -9 18 -20 65 -25 105 -5 40
-23 106 -41 147 -56 133 -76 203 -82 290 -3 47 -15 116 -27 153 -63 203 -68
556 -10 719 39 112 111 273 150 337 56 94 218 240 330 300 25 13 52 30 60 37
26 22 248 94 290 94 11 0 71 17 133 37 142 46 197 51 547 49 269 -2 293 -3
425 -30z"/>
</g>
</svg>
